<svg xmlns="http://www.w3.org/2000/svg" viewBox="0 0 200 200" fill="none">
  <!-- Placeholder - remplacer par logo-assmatpaie.png -->
  <circle cx="100" cy="100" r="95" fill="white" stroke="#4A90D9" stroke-width="2"/>
  <circle cx="100" cy="100" r="85" fill="white" stroke="#F5A623" stroke-width="1.5" stroke-dasharray="4 2"/>
  <!-- House -->
  <path d="M45 95 L60 80 L75 95 L75 115 L45 115 Z" fill="#F5A623" opacity="0.8"/>
  <path d="M55 115 V100 H65 V115" fill="#4A90D9"/>
  <circle cx="60" cy="90" r="3" fill="#E74C3C"/>
  <!-- Person -->
  <circle cx="105" cy="65" r="12" fill="#F5A623"/>
  <path d="M90 80 Q105 95 120 80 L125 110 L85 110 Z" fill="#4A90D9"/>
  <!-- Children -->
  <circle cx="85" cy="85" r="7" fill="#F5A623"/>
  <circle cx="125" cy="85" r="7" fill="#F5A623"/>
  <!-- Calculator -->
  <rect x="130" y="85" width="25" height="30" rx="3" fill="#2C3E50"/>
  <rect x="133" y="88" width="19" height="8" rx="1" fill="#BDC3C7"/>
  <rect x="133" y="99" width="5" height="4" rx="1" fill="#95A5A6"/>
  <rect x="140" y="99" width="5" height="4" rx="1" fill="#95A5A6"/>
  <rect x="147" y="99" width="5" height="4" rx="1" fill="#95A5A6"/>
  <rect x="133" y="106" width="5" height="4" rx="1" fill="#95A5A6"/>
  <rect x="140" y="106" width="5" height="4" rx="1" fill="#95A5A6"/>
  <rect x="147" y="106" width="5" height="4" rx="1" fill="#27AE60"/>
  <!-- Text -->
  <text x="100" y="145" text-anchor="middle" font-family="Arial" font-weight="bold" font-size="18" fill="#2C3E50">AssMatPaie</text>
  <text x="100" y="162" text-anchor="middle" font-family="Arial" font-size="7" fill="#7F8C8D">Gestion Simplifiée pour Assistant(e)s Maternel(le)s</text>
</svg>
